# xmcd
#
# Track frame offsets:
#	150
#	10454
#	24554
#	37341
#	51516
#	64266
#	72722
#	87422
#	104222
#	115322
#	133772
#	150647
#	171047
#
# Disc length: 2509 seconds
#
# Revision: 1
# Processed by: cddbd v1.5.2PL0 Copyright (c) Steve Scherf et al.
# Submitted via: audiograbber 1.83.01
#
DISCID=c909cb0d
DTITLE=DOC LOU - Hubting The Rooster
DYEAR=2015
DGENRE=Blues
TTITLE0=Country Boy
TTITLE1=Something You Got
TTITLE2=High Blood Pressure
TTITLE3=Hound Dog
TTITLE4=Need My Baby
TTITLE5=Lawdy Miss Clawdy
TTITLE6=You Don't Have To Go
TTITLE7=Shake Your Hips
TTITLE8=Big Muddy
TTITLE9=Last Night
TTITLE10=Mystery Train
TTITLE11=Little Red Rooster
TTITLE12=My Toot, Toot
EXTD=
EXTT0=
EXTT1=
EXTT2=
EXTT3=
EXTT4=
EXTT5=
EXTT6=
EXTT7=
EXTT8=
EXTT9=
EXTT10=
EXTT11=
EXTT12=
PLAYORDER=
